<svg width="306" height="306" viewBox="0 0 306 306" fill="none" xmlns="http://www.w3.org/2000/svg">
<g filter="url(#filter0_f_495_211)">
<circle cx="153" cy="153" r="113" fill="#DCD8FF"/>
</g>
<path d="M71.1084 152.659C85.572 130.102 85.835 124.39 85.835 124.39C93.1471 72.1163 132.703 70.9475 147.838 71.0279C156.151 71.0279 206.949 73.2193 207.168 125.208C207.548 168.818 190.221 174.048 184.092 187.467C179.39 198.818 177.914 211.248 179.826 223.385C180.023 224.682 179.832 226.009 179.277 227.198C178.722 228.387 177.828 229.386 176.707 230.068C167.636 233.916 157.88 235.886 148.027 235.86C138.174 235.833 128.429 233.811 119.379 229.915C118.281 229.237 117.376 228.287 116.753 227.157C116.13 226.027 115.809 224.755 115.821 223.465V204.092C115.719 200.981 111.606 200.769 109.919 200.973C103.863 200.973 87.8438 200.973 85.9884 193.252C85.1549 184.611 85.2406 175.906 86.244 167.284C81.8211 165.518 77.5105 163.484 73.3364 161.191C72.5678 160.841 71.8869 160.324 71.3431 159.678C70.7994 159.032 70.4066 158.272 70.1932 157.455C69.9798 156.638 69.9512 155.784 70.1095 154.954C70.2679 154.124 70.6091 153.34 71.1084 152.659V152.659Z" fill="#00B6FF"/>
<path d="M116.596 163.5C129.211 143.828 129.438 138.861 129.438 138.861C135.764 93.3809 170.22 92.4021 183.347 92.4751C190.608 92.3437 235.153 94.6666 235 139.905C235 178.117 220.266 181.901 214.926 193.771C210.821 203.644 209.533 214.461 211.208 225.021C211.369 226.147 211.195 227.295 210.708 228.322C210.22 229.35 209.442 230.211 208.468 230.799C200.592 234.177 192.107 235.906 183.537 235.883C174.967 235.859 166.493 234.082 158.635 230.66C157.668 230.072 156.869 229.243 156.316 228.255C155.763 227.267 155.475 226.153 155.479 225.021V208.22C155.406 205.525 151.863 205.298 150.366 205.466C145.114 205.466 131.125 205.466 129.547 198.79C128.804 191.256 128.868 183.665 129.737 176.145C125.888 174.608 122.143 172.824 118.524 170.805C117.869 170.502 117.289 170.058 116.825 169.506C116.361 168.953 116.025 168.304 115.841 167.606C115.656 166.908 115.629 166.179 115.759 165.469C115.89 164.759 116.175 164.087 116.596 163.5V163.5Z" fill="#5A43FF"/>
<defs>
<filter id="filter0_f_495_211" x="0" y="0" width="306" height="306" filterUnits="userSpaceOnUse" color-interpolation-filters="sRGB">
<feFlood flood-opacity="0" result="BackgroundImageFix"/>
<feBlend mode="normal" in="SourceGraphic" in2="BackgroundImageFix" result="shape"/>
<feGaussianBlur stdDeviation="20" result="effect1_foregroundBlur_495_211"/>
</filter>
</defs>
</svg>
