<svg width="306" height="306" viewBox="0 0 306 306" fill="none" xmlns="http://www.w3.org/2000/svg">
<g filter="url(#filter0_f_532_133)">
<circle cx="153" cy="153" r="113" fill="#DCD8FF"/>
</g>
<path d="M192.57 122.688C192.57 111.062 184.475 101.293 173.625 98.7205V61.6836C173.625 58.5447 171.08 56 167.941 56H137.629C134.49 56 131.945 58.5447 131.945 61.6836V98.7205C121.095 101.293 113 111.062 113 122.688C113 136.268 124.049 147.316 137.629 147.316C143.236 147.316 148.514 145.471 152.785 142.119C157.057 145.471 162.335 147.316 167.941 147.316C181.522 147.316 192.57 136.268 192.57 122.688Z" fill="#00B6FF"/>
<path d="M167.941 158.684C162.335 158.684 157.057 160.529 152.785 163.881C148.514 160.529 143.236 158.684 137.629 158.684C124.049 158.684 113 169.732 113 183.312C113 194.938 121.095 204.707 131.945 207.279V244.316C131.945 247.455 134.49 250 137.629 250H167.941C171.08 250 173.625 247.455 173.625 244.316V207.279C184.475 204.707 192.57 194.938 192.57 183.312C192.57 169.732 181.522 158.684 167.941 158.684Z" fill="#5A43FF"/>
<path d="M192.57 122.688C192.57 111.062 184.475 101.293 173.625 98.7205V61.6836C173.625 58.5447 171.08 56 167.941 56H152.785V142.119C157.057 145.471 162.335 147.316 167.941 147.316C181.522 147.316 192.57 136.268 192.57 122.688Z" fill="#00B6FF"/>
<path d="M167.941 158.684C162.335 158.684 157.057 160.529 152.785 163.881V250H167.941C171.08 250 173.625 247.455 173.625 244.316V207.279C184.475 204.707 192.57 194.938 192.57 183.312C192.57 169.732 181.522 158.684 167.941 158.684Z" fill="#5A43FF"/>
<defs>
<filter id="filter0_f_532_133" x="0" y="0" width="306" height="306" filterUnits="userSpaceOnUse" color-interpolation-filters="sRGB">
<feFlood flood-opacity="0" result="BackgroundImageFix"/>
<feBlend mode="normal" in="SourceGraphic" in2="BackgroundImageFix" result="shape"/>
<feGaussianBlur stdDeviation="20" result="effect1_foregroundBlur_532_133"/>
</filter>
</defs>
</svg>
