<svg width="306" height="306" viewBox="0 0 306 306" fill="none" xmlns="http://www.w3.org/2000/svg">
<g filter="url(#filter0_f_495_111)">
<circle cx="153" cy="153" r="113" fill="#DCD8FF"/>
</g>
<path d="M194.377 159.731V202.022C194.377 207.653 192.51 211.744 186.986 212.839C179.927 212.839 179.927 211.074 178.162 206.662L171.071 171.364L139.335 177.541C137.965 177.541 133.873 170.121 134.123 168.774L137.961 148.059H182.705C189.124 148.059 194.377 153.311 194.377 159.731Z" fill="#5A43FF"/>
<path d="M112.661 237.546C110.617 237.546 109.057 236.911 107.176 235.782C105.037 233.919 102.764 230.487 106.667 221.663C120.851 198.024 124.345 165.27 124.345 137.701V113.042C124.345 106.596 129.571 101.37 136.017 101.37C142.463 101.37 160.122 105.182 160.122 115.771C160.122 126.359 157.475 137.701 157.475 137.701C150.415 172.116 139.041 204.612 122.681 231.878C120.492 235.525 116.626 237.546 112.661 237.546Z" fill="#5A43FF"/>
<path d="M136.016 171.403C133.03 171.403 130.041 170.263 127.763 167.984L104.419 144.639C99.86 140.082 99.86 132.692 104.419 128.134L127.763 104.79C132.319 100.231 139.713 100.231 144.269 104.79C148.828 109.348 148.828 116.738 144.269 121.295L126.098 137.832L141.099 157.245C145.512 164.305 144.108 165.038 142.864 168.717C140.587 170.996 139.003 171.403 136.016 171.403Z" fill="#00B6FF"/>
<path d="M150.806 96.3572C139.128 96.3572 129.628 86.857 129.628 75.1787C129.628 63.5005 139.128 54.0002 150.806 54.0002C162.485 54.0002 171.985 63.5005 171.985 75.1787C171.985 86.857 162.485 96.3572 150.806 96.3572Z" fill="#00B6FF"/>
<path d="M217.721 237.545H147.689C144.467 237.545 141.853 234.932 141.853 231.709C141.853 215.618 154.942 202.529 171.033 202.529H194.377C210.468 202.529 223.557 215.618 223.557 231.709C223.557 234.933 220.943 237.545 217.721 237.545Z" fill="#5A43FF"/>
<defs>
<filter id="filter0_f_495_111" x="0" y="0" width="306" height="306" filterUnits="userSpaceOnUse" color-interpolation-filters="sRGB">
<feFlood flood-opacity="0" result="BackgroundImageFix"/>
<feBlend mode="normal" in="SourceGraphic" in2="BackgroundImageFix" result="shape"/>
<feGaussianBlur stdDeviation="20" result="effect1_foregroundBlur_495_111"/>
</filter>
</defs>
</svg>
