<svg width="306" height="306" viewBox="0 0 306 306" fill="none" xmlns="http://www.w3.org/2000/svg">
<g filter="url(#filter0_f_628_88)">
<circle cx="153" cy="153" r="113" fill="#DCD8FF"/>
</g>
<path d="M86.9999 120.5C78.5 138.5 77.0001 152.667 77.5001 159C117.5 180.667 200.5 219.5 212.5 201.5C224.5 183.5 220.5 152 217 138.5C178.667 124.333 95.7292 102.014 86.9999 120.5Z" fill="#02B6FE"/>
<path fill-rule="evenodd" clip-rule="evenodd" d="M140.161 66.4185V110.586C142.16 111.038 144.215 111.581 146.326 112.224C150.403 113.467 149.105 113.467 153.17 112.224C155.282 111.58 157.337 111.027 159.336 110.586V73.8516V66.4189C159.336 61.1436 155.022 56.8286 149.748 56.8286C144.474 56.8282 140.161 61.1432 140.161 66.4185V66.4185Z" fill="#5A43FF"/>
<path fill-rule="evenodd" clip-rule="evenodd" d="M159.336 73.8516L154.288 104.566L189.307 99.923C191.521 97.7202 193.599 94.9865 195.439 91.677L206.856 71.0954C207.568 69.8077 206.958 68.6893 205.49 68.5763L182.024 66.8933C171.814 66.159 164.237 69.175 159.336 73.8516Z" fill="#7C69FF"/>
<path fill-rule="evenodd" clip-rule="evenodd" d="M140.161 98.6353C113.634 92.7502 95.8026 103.99 86.1357 122.12C95.3168 127.237 104.419 131.722 113.532 135.573C127.05 141.301 140.567 145.672 154.288 148.779C164.452 151.332 174.818 153.218 185.49 154.427C183.198 149.807 209.871 152.235 208.2 142.645L202.113 107.638C198.386 104.363 194.118 101.742 189.307 99.9231C180.962 96.7713 170.99 96.0485 159.336 98.6353C157.337 99.0758 155.282 99.6179 153.17 100.262C149.104 101.516 150.403 101.516 146.327 100.262C144.215 99.6179 142.159 99.0758 140.161 98.6353V98.6353Z" fill="#02B6FE"/>
<path fill-rule="evenodd" clip-rule="evenodd" d="M181.91 139.086C181.91 144.599 183.198 149.806 185.49 154.426C191.137 165.813 202.881 173.641 216.455 173.641C220.713 173.641 224.789 172.873 228.561 171.461C241.661 166.547 251 153.907 251 139.086C251 119.996 235.529 104.531 216.455 104.531C211.34 104.531 206.484 105.639 202.113 107.638C190.188 113.083 181.91 125.113 181.91 139.086V139.086Z" fill="#5A43FF"/>
<path fill-rule="evenodd" clip-rule="evenodd" d="M77.5076 155.669C77.09 164.186 77.8011 172.896 79.5854 181.266C85.5483 209.134 103.538 233.172 132.493 233.172H149.759H167.026C187.782 233.172 202.903 220.814 212.006 203.553L211.994 203.542C214.276 199.216 216.184 194.573 217.697 189.75C169.477 191.76 119.45 179.617 77.5641 155.703L77.5076 155.669Z" fill="#02B6FE"/>
<path d="M210.389 154.035C209.746 154.035 209.099 153.828 208.555 153.405L199.6 146.435C198.298 145.422 198.064 143.546 199.078 142.245C200.092 140.944 201.97 140.711 203.272 141.724L210.007 146.966L229.221 125.152C230.311 123.913 232.198 123.793 233.438 124.883C234.676 125.972 234.797 127.858 233.706 129.096L212.634 153.021C212.046 153.69 211.221 154.035 210.389 154.035V154.035Z" fill="white"/>
<defs>
<filter id="filter0_f_628_88" x="0" y="0" width="306" height="306" filterUnits="userSpaceOnUse" color-interpolation-filters="sRGB">
<feFlood flood-opacity="0" result="BackgroundImageFix"/>
<feBlend mode="normal" in="SourceGraphic" in2="BackgroundImageFix" result="shape"/>
<feGaussianBlur stdDeviation="20" result="effect1_foregroundBlur_628_88"/>
</filter>
</defs>
</svg>
