<svg width="169" height="169" viewBox="0 0 169 169" fill="none" xmlns="http://www.w3.org/2000/svg">
<path d="M91.5062 107.503C90.2383 107.503 88.9705 107.037 88.0064 106.109C87.0731 105.211 85.8273 104.711 84.5022 104.711C83.1815 104.711 81.9357 105.206 80.998 106.109C79.0654 107.97 75.9266 107.97 73.994 106.109C72.057 104.244 72.057 101.227 73.994 99.3663C79.7874 93.789 89.2126 93.789 95.0059 99.3663C96.9429 101.227 96.9429 104.244 95.0059 106.109C94.0419 107.037 92.774 107.503 91.5062 107.503Z" fill="white"/>
<path d="M105.536 94.4588C104.333 94.4588 103.131 93.9805 102.212 93.0239C92.4471 82.8534 76.5529 82.8534 66.7876 93.0239C64.9548 94.9327 61.9822 94.9327 60.1452 93.0239C58.3124 91.115 58.3124 88.0147 60.1452 86.1059C73.5762 72.1177 95.4238 72.1177 108.855 86.1059C110.688 88.0147 110.688 91.115 108.855 93.0239C107.94 93.9805 106.738 94.4588 105.536 94.4588Z" fill="white"/>
<path d="M119.252 80.688C118.035 80.688 116.817 80.2364 115.887 79.3332C107.505 71.1921 96.3588 66.709 84.5021 66.709C72.6455 66.709 61.5032 71.1921 53.1168 79.3332C51.2612 81.1396 48.2474 81.1396 46.3917 79.3332C44.5361 77.5309 44.5361 74.6038 46.3917 72.8015C67.4082 52.3933 101.596 52.3933 122.608 72.8015C124.464 74.6038 124.464 77.5309 122.608 79.3332C121.687 80.2364 120.469 80.688 119.252 80.688Z" fill="white"/>
<path d="M158.947 25H84.4893H10.0569C5.61377 25 2 28.6246 2 33.0809V111.851V131.246C2 135.702 5.61377 139.326 10.0569 139.326H57.8737L53.8646 155.303H47.5137C44.8453 155.303 42.6796 157.471 42.6796 160.151C42.6796 162.828 44.8453 165 47.5137 165H84.4936H121.495C124.168 165 126.329 162.828 126.329 160.151C126.329 157.471 124.168 155.303 121.495 155.303H115.14L111.126 139.326H158.943C163.386 139.326 167 135.702 167 131.246V111.851V33.0809C167.004 28.6246 163.391 25 158.947 25ZM149.67 115.097C149.67 119.213 146.34 122.553 142.236 122.553H26.7678C22.6642 122.553 19.334 119.213 19.334 115.097V50.0271C19.334 45.9112 22.6642 42.5711 26.7678 42.5711H142.236C146.34 42.5711 149.67 45.9112 149.67 50.0271V115.097Z" fill="white"/>
</svg>
