<svg width="306" height="306" viewBox="0 0 306 306" fill="none" xmlns="http://www.w3.org/2000/svg">
<g filter="url(#filter0_f_528_99)">
<circle cx="153" cy="153" r="113" fill="#DCD8FF"/>
</g>
<path d="M85.0997 152.659C99.5632 130.102 99.8262 124.39 99.8262 124.39C107.138 72.1163 146.694 70.9475 161.829 71.0279C170.142 71.0279 220.94 73.2193 221.159 125.208C221.539 168.818 204.212 174.048 198.083 187.467C193.381 198.818 191.905 211.248 193.817 223.385C194.014 224.682 193.823 226.009 193.268 227.198C192.713 228.387 191.819 229.386 190.698 230.068C181.627 233.916 171.871 235.886 162.018 235.86C152.165 235.833 142.42 233.811 133.37 229.915C132.272 229.237 131.367 228.287 130.744 227.157C130.121 226.027 129.8 224.755 129.812 223.465V204.092C129.71 200.981 125.598 200.769 123.91 200.973C117.854 200.973 101.835 200.973 99.9796 193.252C99.1461 184.611 99.2318 175.906 100.235 167.284C95.8124 165.518 91.5017 163.484 87.3276 161.191C86.559 160.841 85.8781 160.324 85.3343 159.678C84.7906 159.032 84.3978 158.272 84.1844 157.455C83.971 156.638 83.9424 155.784 84.1007 154.954C84.2591 154.124 84.6003 153.34 85.0997 152.659V152.659Z" fill="#00B6FF"/>
<path d="M113 126.061C113 134.256 119.644 140.9 127.839 141.838H156.695C157.557 141.838 158.39 141.971 159.18 142.224C161.705 143.028 163.747 145.033 164.54 147.67L167.375 157.102H181.399V150.029C181.418 145.877 184.806 141.871 189.591 141.838C198.016 141.841 205.363 134.933 205.368 126.061C205.368 119.745 201.422 114.356 195.863 112.214C199.131 97.3347 183.726 84.8546 169.604 92.1082C167.076 88.3714 163.26 86.099 159.18 85.3127C151.443 83.8194 142.747 87.668 140.002 97.0137C130.18 94.4131 120.86 102.788 121.772 112.52C116.706 114.761 113.032 120.062 113 126.061V126.061Z" fill="#5A43FF"/>
<path d="M113 126.061C113 134.256 119.644 140.9 127.839 141.837H156.695C157.557 141.837 158.39 141.971 159.18 142.223V85.3127C151.443 83.8194 142.747 87.668 140.002 97.0137C130.18 94.413 120.86 102.788 121.772 112.52C116.706 114.761 113.032 120.061 113 126.061V126.061Z" fill="#5A43FF"/>
<defs>
<filter id="filter0_f_528_99" x="0" y="0" width="306" height="306" filterUnits="userSpaceOnUse" color-interpolation-filters="sRGB">
<feFlood flood-opacity="0" result="BackgroundImageFix"/>
<feBlend mode="normal" in="SourceGraphic" in2="BackgroundImageFix" result="shape"/>
<feGaussianBlur stdDeviation="20" result="effect1_foregroundBlur_528_99"/>
</filter>
</defs>
</svg>
