<svg width="169" height="169" viewBox="0 0 169 169" fill="none" xmlns="http://www.w3.org/2000/svg">
<path d="M47.9044 92.176C47.4512 94.8837 46.9208 97.4366 46.6113 100.017C45.7769 107.007 45.6885 113.986 47.3407 120.894C47.4954 121.551 47.2799 121.861 46.8268 122.247C42.4891 125.933 41.0302 131.669 43.0693 136.863C45.0972 142.024 50.1589 145.279 55.7731 145.047C62.3709 144.771 67.8249 139.212 68.0183 132.57C68.2117 125.845 63.2164 120.004 56.6407 119.319C55.6073 119.208 54.5519 119.302 53.3528 119.302C53.1152 117.866 52.8057 116.479 52.6621 115.069C51.8277 106.637 52.5405 98.3594 55.1432 90.2696C55.4139 89.4241 55.856 88.9821 56.707 88.7168C67.1673 85.4124 77.8874 84.1249 88.8285 84.6001C97.2388 84.9648 105.456 86.4015 113.44 89.0926C114.098 89.3136 114.38 89.6507 114.546 90.3193C115.993 96.1712 115.822 102.056 114.966 107.958C114.772 109.278 114.601 110.599 114.413 111.969C113.142 111.909 111.949 111.793 110.76 111.804C104.428 111.859 99.6757 114.893 95.9513 119.777C92.7795 123.949 90.8786 128.724 89.5192 133.736C89.3424 134.382 89.0827 134.819 88.4472 135.161C85.0212 137.029 84.01 141.251 86.1706 144.434C88.3036 147.578 92.6026 148.202 95.5645 145.804C98.5263 143.406 98.7363 139.079 96.0507 136.244C95.8076 135.985 95.559 135.498 95.6363 135.211C96.8907 130.636 98.6258 126.281 101.737 122.596C105.312 118.363 109.821 117.213 115.071 118.634C121.033 120.247 124.238 124.353 124.785 131.067C125.089 134.78 124.691 138.444 123.823 142.052C123.741 142.4 123.271 142.781 122.895 142.914C120.116 143.92 118.403 146.406 118.508 149.396C118.607 152.114 120.596 154.557 123.299 155.281C126.012 156.005 128.94 154.883 130.416 152.435C131.803 150.131 131.781 147.755 130.294 145.506C129.841 144.815 129.775 144.246 129.952 143.483C131.184 138.096 131.681 132.664 130.532 127.204C129.327 121.49 126.354 117.003 121.055 114.268C120.508 113.986 120.491 113.682 120.547 113.135C121.033 108.295 121.558 103.46 121.889 98.6081C122.005 96.884 121.619 95.1268 121.458 93.3862C121.431 93.0767 121.392 92.7673 121.353 92.397C121.569 92.4357 121.696 92.4302 121.801 92.4854C130.261 96.5856 137.726 101.929 143.136 109.776C147.082 115.495 149.049 121.816 148.999 128.801C148.933 137.841 148.994 146.882 148.977 155.922C148.966 162.282 144.639 166.598 138.279 166.598C102.439 166.603 66.5926 166.603 30.7522 166.598C25.3811 166.598 21.2644 163.382 20.2642 158.386C20.0874 157.491 20.0598 156.552 20.0598 155.634C20.0432 147.042 20.209 138.444 20.0101 129.851C19.7669 119.208 23.9444 110.577 31.3711 103.294C36.0073 98.7462 41.406 95.287 47.2357 92.4744C47.4347 92.3639 47.6391 92.2865 47.9044 92.176Z" fill="white"/>
<path d="M84.5184 74.3607C65.0123 74.3607 49.3687 58.6066 49.3742 38.9623C49.3797 19.7325 65.3272 3.89553 84.5902 4.00052C104.212 4.11104 119.69 19.7933 119.679 39.5591C119.668 58.6674 103.815 74.3607 84.5184 74.3607Z" fill="white"/>
<path d="M59 88C53 89.2 47.8333 91.8333 46 93C43 98.8333 36.8 110.7 36 111.5C35.2 112.3 31 129.167 29 137.5C32.5 141.833 39.6 150.7 40 151.5C40.4 152.3 56.1667 151.833 64 151.5L75 132L59 88Z" fill="white"/>
<path d="M125.5 94.5C121.1 92.1 115.333 89.8333 113 89L98.5 98L80.5 137.5C83 142.5 88.1 152.6 88.5 153C89 153.5 111.5 157 112.5 157C113.3 157 128.167 158 135.5 158.5L138 132L125.5 94.5Z" fill="white"/>
</svg>
