<svg width="306" height="306" viewBox="0 0 306 306" fill="none" xmlns="http://www.w3.org/2000/svg">
<g clip-path="url(#clip0_1109_109)">
<g filter="url(#filter0_f_1109_109)">
<circle cx="153" cy="153" r="113" fill="#DCD8FF"/>
</g>
<path d="M191.605 84.8726V78.9457C191.605 59.9104 176.289 43.2978 156.037 42.0864C133.847 40.7453 115.395 57.2282 115.395 77.7344V84.8726C115.395 95.5584 111.15 102.264 108.982 104.946C108.244 105.855 108.336 107.109 109.075 107.975C112.35 111.738 122.084 120.694 142.059 123.289H164.894C184.87 120.694 194.603 111.695 197.879 107.975C198.663 107.109 198.709 105.855 197.971 104.946C195.895 102.221 191.605 95.5584 191.605 84.8726Z" fill="#5A43FF"/>
<path d="M169.738 132.98C166.832 131.898 164.94 129.259 164.94 126.361V109.878H142.105V126.361C142.105 129.303 140.214 131.898 137.307 132.98L119.224 139.772V199.171H187.776V139.772L169.738 132.98Z" fill="#02B6FE"/>
<path d="M142.105 122.294C145.703 123.505 149.532 124.154 153.546 124.154C157.559 124.154 161.388 123.462 164.987 122.294V109.878H142.105V122.294Z" fill="#02B6FE"/>
<path d="M153.546 117.016C138.83 117.016 126.881 105.812 126.881 92.011V63.4148H180.21V92.011C180.21 105.812 168.262 117.016 153.546 117.016Z" fill="#02B6FE"/>
<path d="M187.822 192.336V139.772L176.381 135.489C176.058 147.04 165.955 156.342 153.546 156.342C141.136 156.342 131.08 147.04 130.71 135.489L119.224 139.772V192.336C112.165 199.906 107.829 209.77 107.829 220.629C107.829 244.293 128.312 263.502 153.546 263.502C178.78 263.502 199.263 244.293 199.263 220.629C199.263 209.77 194.926 199.906 187.822 192.336Z" fill="#7C69FF"/>
<path d="M119.224 168.844V184.938H136.385C126.928 184.895 119.224 177.713 119.224 168.844Z" fill="#5A43FF"/>
<path d="M187.822 168.844V184.938H170.661C180.118 184.895 187.822 177.713 187.822 168.844Z" fill="#5A43FF"/>
<path d="M137.861 184.895H123.053C120.93 184.895 119.224 183.294 119.224 181.304V139.772L111.15 142.801C106.86 144.445 104 148.381 104 152.751V188.485C104 194.412 109.121 199.214 115.441 199.214H138.276C142.889 199.214 146.58 195.364 145.796 190.865C145.196 187.317 141.69 184.895 137.861 184.895Z" fill="#02B6FE"/>
<path d="M195.849 142.801L187.776 139.772V181.347C187.776 183.337 186.069 184.938 183.947 184.938H169.138C165.356 184.938 161.803 187.36 161.204 190.865C160.42 195.321 164.11 199.214 168.723 199.214H191.559C197.879 199.214 202.999 194.412 202.999 188.485V152.751C203.046 148.381 200.185 144.445 195.849 142.801Z" fill="#02B6FE"/>
<path d="M191.558 76.999C191.143 57.6176 174.305 42 153.546 42C132.509 42 115.441 57.9637 115.441 77.6912C129.234 77.3451 136.984 69.8608 140.121 65.8807C141.136 64.5828 143.028 64.3232 144.458 65.2317C151.193 69.4281 169.969 79.5947 191.558 76.999Z" fill="#5A43FF"/>
<path d="M153.546 242.087C132.233 242.087 114.426 228.416 109.351 209.943C108.429 213.361 107.875 216.952 107.875 220.672C107.875 244.337 128.358 263.545 153.592 263.545C178.826 263.545 199.309 244.337 199.309 220.672C199.309 216.952 198.755 213.404 197.833 209.943C192.666 228.373 174.813 242.087 153.546 242.087Z" fill="#5A43FF"/>
</g>
<defs>
<filter id="filter0_f_1109_109" x="0" y="0" width="306" height="306" filterUnits="userSpaceOnUse" color-interpolation-filters="sRGB">
<feFlood flood-opacity="0" result="BackgroundImageFix"/>
<feBlend mode="normal" in="SourceGraphic" in2="BackgroundImageFix" result="shape"/>
<feGaussianBlur stdDeviation="20" result="effect1_foregroundBlur_1109_109"/>
</filter>
<clipPath id="clip0_1109_109">
<rect width="306" height="306" fill="white"/>
</clipPath>
</defs>
</svg>
