<svg width="261" height="261" viewBox="0 0 261 261" fill="none" xmlns="http://www.w3.org/2000/svg">
<path d="M0.16 123.62C0.05 125.77 0 127.94 0 130.12C0 181.26 29.52 225.49 72.44 246.75C68.44 208.73 51.94 171.79 22.86 142.71C15.78 135.62 8.17 129.28 0.16 123.62Z" fill="white"/>
<path d="M35.62 129.94C70.13 164.45 88.62 209 91.14 254.28C102.71 257.91 114.99 259.93 127.71 260.16C129.17 205.4 109.11 150.17 67.41 108.47C51.52 92.58 33.65 79.87 14.6 70.25C9.20996 80.63 5.14996 91.81 2.70996 103.59C14.48 111.07 25.53 119.84 35.62 129.94Z" fill="white"/>
<path d="M156.6 2.70996L65.77 82.53C70.71 86.68 75.53 91.06 80.18 95.71C85.25 100.78 89.99 106.07 94.47 111.49L198.92 19.7C186.13 11.71 171.86 5.85996 156.6 2.70996Z" fill="white"/>
<path d="M130.11 0C86.3298 0 47.6298 21.64 24.0498 54.79C33.3998 59.59 42.4598 65.11 51.1998 71.3L132.27 0.06C131.55 0.04 130.84 0 130.11 0Z" fill="white"/>
<path d="M160.6 185.08C188.55 157.13 223.67 140.63 260.09 135.54C260.16 133.74 260.22 131.93 260.22 130.11C260.22 118.99 258.78 108.21 256.15 97.9099C219.71 100.5 184.02 115.64 156.23 143.43C146.51 153.15 138.25 163.94 131.49 175.5C135.52 186.26 138.71 197.27 141.04 208.42C146.79 200.24 153.28 192.4 160.6 185.08Z" fill="white"/>
<path d="M145.06 236.47C145.67 244.05 145.94 251.65 145.78 259.24C202.29 252.45 247.66 209.48 258 154.15C226.99 159.42 197.26 173.95 173.37 197.84C161.71 209.5 152.28 222.56 145.06 236.47Z" fill="white"/>
<path d="M250.3 80.26C242.25 60.9 229.68 43.9 213.88 30.59L105.42 125.9C112.05 135.39 117.84 145.28 122.85 155.47C128.9 146.69 135.76 138.37 143.46 130.67C173.29 100.85 211.28 84.05 250.3 80.26Z" fill="white"/>
</svg>
