<?xml version="1.0" encoding="utf-8"?>
<!-- Generator: Adobe Illustrator 25.2.1, SVG Export Plug-In . SVG Version: 6.00 Build 0)  -->
<svg version="1.1" id="Capa_1" xmlns="http://www.w3.org/2000/svg" xmlns:xlink="http://www.w3.org/1999/xlink" x="0px" y="0px"
	 viewBox="0 0 325.8 63.1" style="enable-background:new 0 0 325.8 63.1;" xml:space="preserve">
<style type="text/css">
	.st0{fill:#FFFFFF;}
</style>
<g>
	<g>
		<g>
			<g>
				<g>
					<path class="st0" d="M86.4,8.7v19c0,0.6-0.4,1.1-1,1.1c-0.6,0-1.1-0.5-1.1-1.1v-19c0-0.6,0.5-1.1,1.1-1.1
						C86,7.6,86.4,8.1,86.4,8.7z"/>
					<path class="st0" d="M103.6,19.5v8.2c0,0.5-0.4,1-1,1s-1-0.5-1-1v-8.2c0-3.5-2.1-4.7-4.3-4.7c-3.2,0-4.9,2.6-5.2,4.6v8.4
						c0,0.5-0.4,1-1,1c-0.6,0-1-0.5-1-1V14.1c0-0.6,0.4-1,1-1c0.6,0,1,0.5,1,1v2.7c0.2-1,2.1-3.8,5.7-3.8
						C100.5,13,103.6,14.6,103.6,19.5z"/>
					<path class="st0" d="M117.1,15.5c0.2,0.3,0.3,0.5,0.3,0.8c0,0.5-0.4,0.8-0.9,0.8c-0.4,0-0.7-0.2-1-0.8
						c-0.6-0.9-1.7-1.7-3.4-1.7c-2,0-3.2,1-3.2,2.5c0,1.1,0.8,2,2.7,2.5l1.9,0.5c2.8,0.7,4.5,1.8,4.5,4.1c0,2.9-2.8,4.5-5.9,4.5
						c-2.5,0-4.6-1.1-5.3-2.7c-0.1-0.2-0.4-0.6-0.4-1c0-0.5,0.3-0.9,0.8-0.9c0.5,0,0.7,0.3,0.9,0.7c0.6,1.5,2.2,2.1,3.9,2.1
						c2.1,0,3.9-0.8,3.9-2.6c0-1.4-1.1-2.1-2.7-2.5l-2.4-0.6c-2.8-0.7-4-2.2-4-4.1c0-2.5,2.2-4.2,5.2-4.2
						C114.4,13,116.2,14,117.1,15.5z"/>
					<path class="st0" d="M127.1,27.5c0,1-1.5,1.3-2.6,1.3c-1.4,0-2.8-0.5-2.8-3v-11h-1.5c-0.5,0-0.9-0.3-0.9-0.9
						c0-0.5,0.4-0.9,0.9-0.9h1.5v-2.7c0-0.6,0.4-1,1-1c0.6,0,1,0.4,1,1v2.7h2.5c0.5,0,0.9,0.3,0.9,0.9s-0.4,0.9-0.9,0.9h-2.5v10.9
						c0,1,0.4,1.3,1.2,1.3c0.5,0,0.9-0.1,1.2-0.2C126.7,26.7,127.1,27,127.1,27.5z"/>
					<path class="st0" d="M129.8,8.1c0-0.6,0.5-1,1-1c0.6,0,1,0.5,1,1s-0.5,1-1,1S129.8,8.7,129.8,8.1z M131.8,14.1v13.7
						c0,0.6-0.4,1-1,1c-0.6,0-1-0.5-1-1V14.1c0-0.6,0.4-1,1-1S131.8,13.6,131.8,14.1z"/>
					<path class="st0" d="M142,27.5c0,1-1.5,1.3-2.6,1.3c-1.4,0-2.8-0.5-2.8-3v-11h-1.5c-0.5,0-0.9-0.3-0.9-0.9
						c0-0.5,0.4-0.9,0.9-0.9h1.5v-2.7c0-0.6,0.4-1,1-1c0.6,0,1,0.4,1,1v2.7h2.5c0.5,0,0.9,0.3,0.9,0.9s-0.4,0.9-0.9,0.9h-2.5v10.9
						c0,1,0.4,1.3,1.2,1.3c0.5,0,0.9-0.1,1.2-0.2C141.6,26.7,142,27,142,27.5z"/>
					<path class="st0" d="M144.7,22.4v-8.2c0-0.5,0.4-1,1-1c0.6,0,1,0.5,1,1v8.2c0,3.5,2.1,4.7,4.3,4.7c3.2,0,4.9-2.6,5.2-4.6v-8.4
						c0-0.5,0.4-1,1-1c0.6,0,1,0.5,1,1v13.7c0,0.6-0.4,1-1,1c-0.6,0-1-0.5-1-1v-2.7c-0.2,1-2.1,3.8-5.7,3.8
						C147.8,28.9,144.7,27.3,144.7,22.4z"/>
					<path class="st0" d="M168.4,27.5c0,1-1.5,1.3-2.6,1.3c-1.4,0-2.8-0.5-2.8-3v-11h-1.5c-0.5,0-0.9-0.3-0.9-0.9
						c0-0.5,0.4-0.9,0.9-0.9h1.5v-2.7c0-0.6,0.4-1,1-1c0.6,0,1,0.4,1,1v2.7h2.5c0.5,0,0.9,0.3,0.9,0.9s-0.4,0.9-0.9,0.9H165v10.9
						c0,1,0.4,1.3,1.2,1.3c0.5,0,0.9-0.1,1.2-0.2C168,26.7,168.4,27,168.4,27.5z"/>
					<path class="st0" d="M185.7,20.9c0,5.3-4.3,8-7.7,8c-3.4,0-7.7-2.6-7.7-8c0-5.3,4.3-7.9,7.7-7.9
						C181.4,13,185.7,15.6,185.7,20.9z M172.3,20.9c0,4.2,3.1,6.2,5.7,6.2c2.6,0,5.7-2,5.7-6.2c0-4.1-3.1-6.1-5.7-6.1
						C175.3,14.8,172.3,16.8,172.3,20.9z"/>
					<path class="st0" d="M210.6,8.4v19.4c0,0.5-0.5,1-1,1c-0.5,0-1-0.5-1-1v-2.5c-0.9,2.1-3,3.6-5.6,3.6c-3.3,0-7.4-2.6-7.4-8
						c0-5.3,4.1-7.9,7.4-7.9c2.3,0,4.5,1.1,5.6,3.3v-2.2c0-0.1,0-0.2,0-0.2V8.4c0-0.6,0.4-1,1-1C210.1,7.4,210.6,7.8,210.6,8.4z
						 M208.7,20.9c0-4.3-2.9-6.1-5.5-6.1s-5.6,2-5.6,6.1c0,4.2,3,6.2,5.6,6.2S208.7,25.1,208.7,20.9z"/>
					<path class="st0" d="M228.6,20.6c0,0.8-0.5,1.2-1.3,1.2h-11.6c0.2,3.7,3.1,5.4,5.8,5.4c1.4,0,2.7-0.5,3.8-1.3
						c0.4-0.3,0.6-0.5,0.9-0.5c0.5,0,0.8,0.4,0.8,0.8c0,0.3-0.1,0.5-0.6,1c-1.2,1.1-3.1,1.7-4.9,1.7c-3.8,0-7.8-2.5-7.8-7.9
						c0-5.3,4.2-7.9,7.6-7.9C224.6,13,228.6,15.6,228.6,20.6z M215.7,20.1h11c-0.2-3.6-3.1-5.3-5.5-5.3
						C218.8,14.8,215.9,16.4,215.7,20.1z"/>
				</g>
				<g>
					<path class="st0" d="M97.1,37.8c0.6,0.7,0.9,1.2,0.9,1.8c0,0.9-0.7,1.6-1.7,1.6c-0.7,0-1.2-0.3-1.6-0.8
						c-0.8-0.9-1.6-1.4-2.9-1.4c-1.8,0-2.9,1-2.9,2.3c0,1,0.6,1.9,2.4,2.6l1.2,0.5c4.7,1.8,6.5,3.5,6.5,6.3c0,4.1-4.1,6.2-7.6,6.2
						c-2.4,0-4.8-1-6.3-2.8c-0.3-0.4-0.8-1-0.8-1.9c0-0.8,0.5-1.7,1.6-1.7c0.9,0,1.5,0.6,1.9,1.1c1,1.3,2.3,1.8,3.6,1.8
						c1.5,0,3.5-0.6,3.5-2.7c0-1.5-1-2.2-3.3-3.1L90.3,47c-3.1-1.2-5.4-2.7-5.4-5.7c0-3.5,3-5.8,6.7-5.8
						C94.3,35.5,95.9,36.5,97.1,37.8z"/>
					<path class="st0" d="M117,42.9v11.9c0,1.1-0.9,1.9-2,1.9c-1.1,0-2-0.9-2-1.9v-0.6c-0.2,0.9-1.8,2.5-4.4,2.5
						c-3.3,0-7.2-2.5-7.2-8c0-5.3,4-7.9,7.2-7.9c2.1,0,3.8,1.1,4.4,2.5v-0.5c0-1,0.9-1.9,2-1.9C116,41,117,41.8,117,42.9z
						 M113.2,48.8c0-3.4-2.2-4.6-3.9-4.6c-2,0-4,1.5-4,4.6c0,3.1,2.1,4.6,4,4.6C111,53.4,113.2,52.2,113.2,48.8z"/>
					<path class="st0" d="M122.3,56.7c-1.1,0-2-0.9-2-1.9V37.2c0-1,0.9-1.9,2-1.9c1,0,1.9,0.9,1.9,1.9v17.6
						C124.3,55.8,123.4,56.7,122.3,56.7z"/>
					<path class="st0" d="M127.8,49.6v-6.7c0-1.1,0.9-1.9,2-1.9c1,0,1.9,0.9,1.9,1.9v6.7c0,2.7,1.4,3.8,3.2,3.8
						c2.7,0,3.6-2.5,3.7-3.3v-7.2c0-1.1,0.9-1.9,1.9-1.9c1.1,0,2,0.9,2,1.9v11.8c0,1.1-0.9,2-2,2c-1,0-1.9-0.9-1.9-2v-1.5
						c-0.1,1.1-1.9,3.5-5.1,3.5C130.5,56.8,127.8,54.8,127.8,49.6z"/>
					<path class="st0" d="M161.1,37.2v17.6c0,1.1-0.9,1.9-2,1.9c-1.1,0-2-0.9-2-1.9v-0.6c-0.2,0.9-1.8,2.5-4.4,2.5
						c-3.3,0-7.2-2.5-7.2-8c0-5.3,4-7.9,7.2-7.9c2.1,0,3.8,1.1,4.4,2.5v-0.5c0-0.1,0-0.2,0-0.3v-5.4c0-1,0.9-1.9,1.9-1.9
						C160.2,35.3,161.1,36.2,161.1,37.2z M157.3,48.8c0-3.4-2.2-4.6-3.9-4.6c-2,0-4,1.5-4,4.6c0,3.1,2.1,4.6,4,4.6
						C155.1,53.4,157.3,52.2,157.3,48.8z"/>
					<path class="st0" d="M176.6,37.6v17.1c0,1.1-0.9,2.1-2,2.1c-1.1,0-2.1-1-2.1-2.1V37.6c0-1.1,0.9-2.1,2.1-2.1
						C175.7,35.5,176.6,36.5,176.6,37.6z"/>
					<path class="st0" d="M194.9,48v6.7c0,1.1-0.9,1.9-2,1.9c-1,0-1.9-0.9-1.9-1.9V48c0-2.7-1.4-3.8-3.2-3.8c-2.7,0-3.6,2.5-3.7,3.3
						v7.2c0,1.1-0.9,1.9-1.9,1.9c-1.1,0-2-0.9-2-1.9V42.9c0-1.1,0.9-2,2-2c1,0,1.9,0.9,1.9,2v1.5c0.1-1.1,1.9-3.5,5.1-3.5
						C192.2,40.9,194.9,42.9,194.9,48z"/>
					<path class="st0" d="M206.9,54.6c0,1.4-1.3,2.1-3.4,2.1s-4.1-0.7-4.1-4.8v-7.8h-0.9c-0.9,0-1.6-0.6-1.6-1.5
						c0-0.9,0.6-1.5,1.6-1.5h0.9v-2c0-1.1,0.9-2,2-2c1.1,0,1.9,0.9,1.9,2v2h2c1,0,1.6,0.6,1.6,1.5c0,0.9-0.6,1.5-1.6,1.5h-2V52
						c0,0.9,0.3,1.3,0.9,1.3c0.3,0,0.8-0.1,1.1-0.1C206.3,53.2,206.9,53.7,206.9,54.6z"/>
					<path class="st0" d="M224.1,48.2c0,1.5-0.9,2.1-2.4,2.1l-8.9-0.1c0.4,2.2,2.1,3.3,4.3,3.3c1.1,0,1.6-0.2,2.5-0.6
						c0.5-0.2,0.9-0.5,1.5-0.5c0.8,0,1.3,0.6,1.3,1.3c0,0.5-0.2,1-0.9,1.6c-1.1,0.8-2.6,1.3-4.5,1.3c-4,0-8.2-2.5-8.2-7.9
						c0-5.4,4.4-8,7.9-8C219.9,40.9,224.1,43.5,224.1,48.2z M212.8,47.5h7.5c-0.3-2.3-2-3.2-3.7-3.2C214.8,44.3,213,45.2,212.8,47.5
						z"/>
					<path class="st0" d="M241.8,54.8c0,0.2,0,0.3-0.1,0.5v1c0,4.9-4.5,6.4-7.7,6.4c-1.9,0-3.3-0.5-4-0.8c-0.8-0.4-1.3-1-1.3-1.7
						c0-0.9,0.7-1.5,1.6-1.5c0.2,0,0.4,0,0.8,0.2c0.6,0.2,1.6,0.5,2.9,0.5c2.4,0,3.8-1.3,3.8-3v-2c-0.2,0.9-1.8,2.5-4.4,2.5
						c-3.3,0-7.2-2.5-7.2-8c0-5.3,4-7.9,7.2-7.9c2.1,0,3.8,1.1,4.4,2.5v-0.5c0-1,0.9-1.9,2-1.9c1,0,2,0.9,2,1.9V54.8z M238,48.8
						c0-3.4-2.2-4.6-3.9-4.6c-2,0-4,1.5-4,4.6c0,3.1,2.1,4.6,4,4.6C235.8,53.4,238,52.2,238,48.8z"/>
					<path class="st0" d="M256,42.7c0,1.1-0.8,1.8-2.5,1.8c-2.4,0-3.9,1.8-4,3v7.2c0,1-0.9,1.9-1.9,1.9c-1.1,0-2-0.9-2-1.9V42.9
						c0-1.1,0.9-2,2-2c1,0,1.9,0.9,1.9,2v1.5c0.1-1.1,2-3.5,4.6-3.5C255.4,40.9,256,41.7,256,42.7z"/>
					<path class="st0" d="M272.6,42.9v11.9c0,1.1-1,1.9-2,1.9c-1.1,0-2-0.9-2-1.9v-0.6c-0.2,0.9-1.8,2.5-4.4,2.5
						c-3.3,0-7.2-2.5-7.2-8c0-5.3,4-7.9,7.2-7.9c2.1,0,3.8,1.1,4.4,2.5v-0.5c0-1,0.9-1.9,2-1.9C271.7,41,272.6,41.8,272.6,42.9z
						 M268.9,48.8c0-3.4-2.2-4.6-3.9-4.6c-2,0-4,1.5-4,4.6c0,3.1,2.1,4.6,4,4.6C266.7,53.4,268.9,52.2,268.9,48.8z"/>
					<path class="st0" d="M285,54.6c0,1.4-1.3,2.1-3.4,2.1s-4.1-0.7-4.1-4.8v-7.8h-0.9c-1,0-1.6-0.6-1.6-1.5c0-0.9,0.6-1.5,1.6-1.5
						h0.9v-2c0-1.1,0.9-2,2-2s1.9,0.9,1.9,2v2h2c1,0,1.6,0.6,1.6,1.5c0,0.9-0.6,1.5-1.6,1.5h-2V52c0,0.9,0.3,1.3,1,1.3
						c0.3,0,0.8-0.1,1.1-0.1C284.4,53.2,285,53.7,285,54.6z"/>
					<path class="st0" d="M287.6,36.9c0-1,0.9-1.9,2-1.9c1,0,2,0.9,2,1.9c0,1-0.9,1.9-2,1.9C288.6,38.8,287.6,37.9,287.6,36.9z
						 M291.6,42.9v11.8c0,1.1-0.9,2-1.9,2c-1.1,0-2-0.9-2-2V42.9c0-1.1,0.9-2,2-2C290.7,41,291.6,41.8,291.6,42.9z"/>
					<path class="st0" d="M309,42.7c0,0.4-0.1,0.7-0.2,0.9l-5.2,11.5c-0.5,0.9-1,1.5-2,1.5c-0.9,0-1.5-0.6-1.9-1.5l-5.3-11.5
						c-0.1-0.2-0.2-0.5-0.2-0.9c0-1,0.8-1.8,1.8-1.8c0.8,0,1.5,0.4,1.9,1.4l3.8,8.8l3.8-8.8c0.4-1,1.1-1.4,1.9-1.4
						C308.2,41,309,41.8,309,42.7z"/>
					<path class="st0" d="M325.8,42.9v11.9c0,1.1-1,1.9-2,1.9c-1.1,0-2-0.9-2-1.9v-0.6c-0.2,0.9-1.8,2.5-4.4,2.5
						c-3.3,0-7.2-2.5-7.2-8c0-5.3,4-7.9,7.2-7.9c2.1,0,3.8,1.1,4.4,2.5v-0.5c0-1,0.9-1.9,2-1.9C324.8,41,325.8,41.8,325.8,42.9z
						 M322,48.8c0-3.4-2.2-4.6-3.9-4.6c-2,0-4,1.5-4,4.6c0,3.1,2.1,4.6,4,4.6C319.8,53.4,322,52.2,322,48.8z"/>
				</g>
			</g>
		</g>
	</g>
	<g>
		<g>
			<path class="st0" d="M0,30c0,0.5,0,1.1,0,1.6c0,12.4,7.2,23.1,17.6,28.3c-1-9.2-5-18.2-12-25.2C3.8,32.9,2,31.3,0,30z"/>
			<path class="st0" d="M8.6,31.5c8.4,8.4,12.9,19.2,13.5,30.2c2.8,0.9,5.8,1.4,8.9,1.4c0.4-13.3-4.5-26.7-14.6-36.8
				c-3.9-3.9-8.2-6.9-12.8-9.3c-1.3,2.5-2.3,5.2-2.9,8.1C3.5,26.9,6.2,29.1,8.6,31.5z"/>
		</g>
		<g>
			<path class="st0" d="M38,0.7L15.9,20c1.2,1,2.4,2.1,3.5,3.2c1.2,1.2,2.4,2.5,3.5,3.8L48.2,4.8C45.1,2.8,41.7,1.4,38,0.7z"/>
			<path class="st0" d="M31.5,0c-10.6,0-20,5.2-25.7,13.3c2.3,1.2,4.5,2.5,6.6,4L32.1,0C31.9,0,31.7,0,31.5,0z"/>
		</g>
		<g>
			<path class="st0" d="M38.9,44.9c6.8-6.8,15.3-10.8,24.1-12c0-0.4,0-0.9,0-1.3c0-2.7-0.3-5.3-1-7.8c-8.8,0.6-17.5,4.3-24.2,11
				c-2.4,2.4-4.4,5-6,7.8c1,2.6,1.8,5.3,2.3,8C35.6,48.5,37.2,46.7,38.9,44.9z"/>
			<path class="st0" d="M35.2,57.3c0.2,1.8,0.2,3.7,0.2,5.5C49,61.2,60,50.8,62.5,37.4C55,38.7,47.8,42.2,42,48
				C39.2,50.8,36.9,54,35.2,57.3z"/>
			<path class="st0" d="M60.7,19.5c-2-4.7-5-8.8-8.8-12L25.6,30.5c1.6,2.3,3,4.7,4.2,7.2c1.5-2.1,3.1-4.2,5-6
				C42,24.5,51.2,20.4,60.7,19.5z"/>
		</g>
	</g>
</g>
</svg>
