<svg width="250" height="48" viewBox="0 0 250 48" fill="none" xmlns="http://www.w3.org/2000/svg">
<path d="M66.413 6.2787V20.6119C66.413 21.0078 66.0837 21.4038 65.5897 21.4038C65.0957 21.4038 64.7664 21.0078 64.7664 20.6119V6.2787C64.7664 5.80357 65.1781 5.48682 65.5897 5.48682C66.0014 5.48682 66.413 5.80357 66.413 6.2787Z" fill="white"/>
<path d="M79.5828 14.3245V20.6034C79.5828 21.0059 79.2476 21.4084 78.7448 21.4084C78.3258 21.4084 77.9069 21.0059 77.9069 20.6034V14.3245C77.9069 11.668 76.2309 10.702 74.4712 10.702C71.9574 10.702 70.6166 12.7145 70.2815 14.1635V20.6034C70.2815 21.0059 69.9463 21.4084 69.4435 21.4084C69.0245 21.4084 68.6056 21.0059 68.6056 20.6034V10.1385C68.6056 9.73599 68.9407 9.3335 69.4435 9.3335C69.8625 9.3335 70.2815 9.73599 70.2815 10.1385V12.2315C70.4491 11.507 71.9574 9.3335 74.8064 9.3335C77.0689 9.3335 79.5828 10.541 79.5828 14.3245Z" fill="white"/>
<path d="M89.8349 11.1774C89.996 11.4172 90.0766 11.577 90.0766 11.8168C90.0766 12.2165 89.7543 12.4563 89.432 12.4563C89.1098 12.4563 88.9486 12.2964 88.6264 11.8968C88.143 11.1774 87.3373 10.6179 86.0483 10.6179C84.5175 10.6179 83.6313 11.4172 83.6313 12.5362C83.6313 13.4154 84.1952 14.0549 85.6454 14.4545L87.0956 14.8542C89.1904 15.4137 90.56 16.213 90.56 17.9714C90.56 20.2095 88.3847 21.4084 86.0483 21.4084C84.1147 21.4084 82.5033 20.6091 82.0199 19.3302C81.9394 19.1704 81.7782 18.9306 81.7782 18.5309C81.7782 18.1313 82.0199 17.8116 82.4228 17.8116C82.8256 17.8116 82.9867 18.0514 83.1479 18.3711C83.6313 19.4901 84.8398 19.9697 86.1288 19.9697C87.7402 19.9697 89.1098 19.3302 89.1098 17.9714C89.1098 16.9323 88.3041 16.3728 87.0151 16.0531L85.0815 15.6535C82.9867 15.094 82.0199 13.9749 82.0199 12.5362C82.0199 10.6179 83.7118 9.339 86.0483 9.339C87.8207 9.25907 89.1098 10.0584 89.8349 11.1774Z" fill="white"/>
<path d="M97.0776 20.477C97.0776 21.1713 96.1555 21.4027 95.431 21.4027C94.5089 21.4027 93.6527 21.017 93.6527 19.2428V11.1435H92.7306C92.4013 11.1435 92.2037 10.912 92.2037 10.5264C92.2037 10.1407 92.4013 9.90926 92.7306 9.90926H93.6527V7.90369C93.6527 7.51801 93.9161 7.13232 94.3113 7.13232C94.6406 7.13232 94.97 7.44087 94.97 7.90369V9.90926H96.5507C96.88 9.90926 97.1434 10.1407 97.1434 10.5264C97.1434 10.912 96.88 11.1435 96.5507 11.1435H94.97V19.0886C94.97 19.7828 95.2334 20.0142 95.6945 20.0142C96.0238 20.0142 96.2214 19.9371 96.4189 19.8599C96.8141 19.7828 97.0776 20.0914 97.0776 20.477Z" fill="white"/>
<path d="M99.9442 6.25575C99.9442 5.87128 100.206 5.48682 100.467 5.48682C100.728 5.48682 100.99 5.87128 100.99 6.25575C100.99 6.64022 100.728 7.02468 100.467 7.02468C100.153 7.02468 99.9442 6.71711 99.9442 6.25575ZM100.937 10.6387V20.6348C100.937 21.0193 100.728 21.4038 100.415 21.4038C100.153 21.4038 99.8919 21.0193 99.8919 20.6348V10.6387C99.8919 10.2542 100.101 9.86974 100.415 9.86974C100.728 9.86974 100.937 10.2542 100.937 10.6387Z" fill="white"/>
<path d="M108.591 20.477C108.591 21.1713 107.464 21.4027 106.579 21.4027C105.452 21.4027 104.405 21.017 104.405 19.2428V11.1435H103.278C102.876 11.1435 102.634 10.912 102.634 10.5264C102.634 10.1407 102.876 9.90926 103.278 9.90926H104.405V7.90369C104.405 7.51801 104.727 7.13232 105.21 7.13232C105.613 7.13232 106.015 7.44087 106.015 7.90369V9.90926H107.947C108.35 9.90926 108.672 10.1407 108.672 10.5264C108.672 10.912 108.35 11.1435 107.947 11.1435H106.015V19.0886C106.015 19.7828 106.337 20.0142 106.901 20.0142C107.303 20.0142 107.545 19.9371 107.786 19.8599C108.269 19.7828 108.591 20.0914 108.591 20.477Z" fill="white"/>
<path d="M111.419 16.6389V10.6454C111.419 10.2612 111.738 9.87695 112.215 9.87695C112.613 9.87695 113.011 10.2612 113.011 10.6454V16.6389C113.011 19.1746 114.603 20.0967 116.275 20.0967C118.663 20.0967 119.937 18.1757 120.255 16.7926V10.6454C120.255 10.2612 120.574 9.87695 121.051 9.87695C121.449 9.87695 121.848 10.2612 121.848 10.6454V20.6346C121.848 21.0188 121.529 21.403 121.051 21.403C120.653 21.403 120.255 21.0188 120.255 20.6346V18.6368C120.096 19.3283 118.663 21.403 115.957 21.403C113.807 21.403 111.419 20.1736 111.419 16.6389Z" fill="white"/>
<path d="M129.452 20.477C129.452 21.1713 128.325 21.4027 127.439 21.4027C126.312 21.4027 125.266 21.017 125.266 19.2428V11.1435H124.139C123.736 11.1435 123.495 10.912 123.495 10.5264C123.495 10.1407 123.736 9.90926 124.139 9.90926H125.266V7.90369C125.266 7.51801 125.588 7.13232 126.071 7.13232C126.473 7.13232 126.876 7.44087 126.876 7.90369V9.90926H128.808C129.21 9.90926 129.532 10.1407 129.532 10.5264C129.532 10.912 129.21 11.1435 128.808 11.1435H126.876V19.0886C126.876 19.7828 127.198 20.0142 127.761 20.0142C128.164 20.0142 128.405 19.9371 128.647 19.8599C129.13 19.7828 129.452 20.0914 129.452 20.477Z" fill="white"/>
<path d="M142.153 15.3321C142.153 19.4096 138.917 21.4084 136.39 21.4084C133.785 21.4084 130.627 19.4096 130.627 15.3321C130.627 11.3346 133.864 9.3358 136.39 9.3358C138.995 9.25585 142.153 11.2546 142.153 15.3321ZM132.127 15.3321C132.127 18.5302 134.417 20.0492 136.39 20.0492C138.364 20.0492 140.653 18.5302 140.653 15.3321C140.653 12.214 138.364 10.695 136.39 10.695C134.417 10.615 132.127 12.1341 132.127 15.3321Z" fill="white"/>
<path d="M161.361 6.3409V20.6273C161.361 21.0155 160.958 21.4038 160.555 21.4038C160.152 21.4038 159.749 21.0155 159.749 20.6273V18.7639C159.105 20.3167 157.412 21.4038 155.477 21.4038C152.898 21.4038 149.835 19.4627 149.835 15.5028C149.835 11.6207 152.979 9.67957 155.477 9.67957C157.251 9.67957 158.943 10.5336 159.749 12.0865V10.456C159.749 10.3784 159.749 10.3007 159.749 10.3007V6.26325C159.749 5.87503 160.072 5.48682 160.555 5.48682C161.039 5.56446 161.361 5.95268 161.361 6.3409ZM159.911 15.5805C159.911 12.3971 157.654 11.0772 155.719 11.0772C153.785 11.0772 151.447 12.5524 151.447 15.5805C151.447 18.6862 153.785 20.1615 155.719 20.1615C157.654 20.0838 159.911 18.6862 159.911 15.5805Z" fill="white"/>
<path d="M175.087 15.049C175.087 15.6125 174.679 15.9345 174.107 15.9345H165.033C165.196 18.7519 167.403 20.0399 169.529 20.0399C170.673 20.0399 171.654 19.7179 172.472 19.0739C172.799 18.8324 172.962 18.7519 173.207 18.7519C173.616 18.7519 173.861 18.9934 173.861 19.3959C173.861 19.6374 173.78 19.7984 173.453 20.1204C172.472 21.0059 171.082 21.4084 169.611 21.4084C166.668 21.4084 163.561 19.4764 163.561 15.371C163.561 11.346 166.831 9.3335 169.447 9.3335C172.063 9.3335 175.087 11.346 175.087 15.049ZM165.033 14.727H173.534C173.371 11.9095 171.164 10.702 169.284 10.702C167.403 10.6215 165.196 11.9095 165.033 14.727Z" fill="white"/>
<path d="M74.8106 28.6869C75.2222 29.1759 75.4692 29.5835 75.4692 30.0726C75.4692 30.7247 74.8929 31.2953 74.1519 31.2953C73.658 31.2953 73.164 31.0508 72.917 30.6432C72.2584 29.9096 71.6821 29.5835 70.6941 29.5835C69.2945 29.5835 68.4712 30.3171 68.4712 31.3768C68.4712 32.1104 68.8829 32.8441 70.2825 33.3332L71.1881 33.6592C74.8106 35.0449 76.2925 36.3492 76.2925 38.55C76.2925 41.7291 73.0816 43.3594 70.3648 43.3594C68.5536 43.3594 66.5777 42.6257 65.4251 41.1585C65.1781 40.9139 64.7664 40.3433 64.7664 39.6912C64.7664 39.0391 65.1781 38.387 66.0837 38.387C66.8246 38.387 67.2363 38.7946 67.5656 39.2837C68.3889 40.2618 69.3768 40.6694 70.3648 40.6694C71.5174 40.6694 73.0817 40.1803 73.0817 38.6316C73.0817 37.4088 72.2584 36.9198 70.4471 36.1861L69.4592 35.7786C67.0716 34.8819 65.2604 33.7407 65.2604 31.3768C65.2604 28.6053 67.5656 26.8936 70.5294 26.8936C72.5877 26.8936 73.8226 27.7087 74.8106 28.6869Z" fill="white"/>
<path d="M89.4627 32.3238V41.7707C89.4627 42.6067 88.7665 43.2755 87.9929 43.2755C87.2193 43.2755 86.5231 42.6067 86.5231 41.7707V41.3527C86.3684 42.1051 85.2081 43.3591 83.2742 43.3591C80.8762 43.3591 77.9366 41.3527 77.9366 37.0054C77.9366 32.8254 80.8762 30.7354 83.2742 30.7354C84.8213 30.7354 86.059 31.655 86.5231 32.7418V32.3238C86.5231 31.4878 87.2193 30.819 87.9929 30.819C88.7665 30.7354 89.4627 31.4878 89.4627 32.3238ZM86.6779 37.0054C86.6779 34.3302 85.0534 33.327 83.8157 33.327C82.3459 33.327 80.8761 34.581 80.8761 37.0054C80.8761 39.4299 82.4233 40.6839 83.8157 40.6839C85.0534 40.6003 86.6779 39.6807 86.6779 37.0054Z" fill="white"/>
<path d="M94.4482 43.3594C93.5581 43.3594 92.7571 42.7136 92.7571 41.9065V28.3464C92.7571 27.5393 93.5581 26.8936 94.4482 26.8936C95.3382 26.8936 96.0503 27.62 96.0503 28.3464V41.8258C96.0503 42.7136 95.3382 43.3594 94.4482 43.3594Z" fill="white"/>
<path d="M98.2441 37.6364V32.2502C98.2441 31.4086 98.9074 30.7354 99.8196 30.7354C100.649 30.7354 101.312 31.4086 101.312 32.2502V37.6364C101.312 39.8245 102.39 40.6661 103.8 40.6661C105.956 40.6661 106.619 38.6463 106.702 37.973V32.2502C106.702 31.4086 107.448 30.7354 108.195 30.7354C109.024 30.7354 109.77 31.4086 109.77 32.2502V41.7601C109.77 42.6017 109.024 43.3591 108.195 43.3591C107.365 43.3591 106.702 42.6859 106.702 41.7601V40.5819C106.619 41.4235 105.209 43.3591 102.722 43.3591C100.4 43.275 98.2441 41.7601 98.2441 37.6364Z" fill="white"/>
<path d="M123.494 28.3464V41.8258C123.494 42.6329 122.797 43.2786 122.024 43.2786C121.25 43.2786 120.554 42.6329 120.554 41.8258V41.4222C120.399 42.1486 119.239 43.3594 117.305 43.3594C114.907 43.3594 111.968 41.4222 111.968 37.225C111.968 33.1893 114.907 31.1714 117.305 31.1714C118.852 31.1714 120.09 32.0593 120.554 33.1086V32.705C120.554 32.6243 120.554 32.5436 120.554 32.4629V28.3464C120.554 27.5393 121.25 26.8936 121.947 26.8936C122.797 26.8936 123.494 27.5393 123.494 28.3464ZM120.709 37.3058C120.709 34.7229 119.084 33.7543 117.847 33.7543C116.377 33.7543 114.907 34.965 114.907 37.3058C114.907 39.6465 116.454 40.8572 117.847 40.8572C119.084 40.7765 120.709 39.8886 120.709 37.3058Z" fill="white"/>
<path d="M136.122 28.5238V41.7291C136.122 42.5442 135.362 43.3594 134.517 43.3594C133.588 43.3594 132.828 42.6257 132.828 41.7291V28.5238C132.828 27.7087 133.588 26.8936 134.517 26.8936C135.362 26.9751 136.122 27.7087 136.122 28.5238Z" fill="white"/>
<path d="M149.837 36.4118V41.8341C149.837 42.6813 149.09 43.3591 148.261 43.3591C147.432 43.3591 146.768 42.6813 146.768 41.8341V36.4118C146.768 34.209 145.691 33.3618 144.281 33.3618C142.125 33.3618 141.462 35.3951 141.379 36.0729V41.8341C141.379 42.6813 140.632 43.3591 139.886 43.3591C139.057 43.3591 138.311 42.6813 138.311 41.8341V32.3451C138.311 31.4979 139.057 30.7354 139.886 30.7354C140.715 30.7354 141.379 31.4131 141.379 32.3451V33.5312C141.462 32.684 142.871 30.7354 145.359 30.7354C147.764 30.7354 149.837 32.2604 149.837 36.4118Z" fill="white"/>
<path d="M159.17 41.7176C159.17 42.786 158.107 43.3612 156.554 43.3612C155.001 43.3612 153.366 42.8681 153.366 39.5809V33.4994H152.712C151.976 33.4994 151.486 33.0063 151.486 32.3488C151.486 31.6092 151.976 31.1161 152.712 31.1161H153.366V29.5546C153.366 28.7328 154.101 27.9932 154.919 27.9932C155.736 27.9932 156.39 28.6506 156.39 29.5546V31.1161H157.943C158.679 31.1161 159.17 31.6092 159.17 32.3488C159.17 33.0063 158.679 33.4994 157.943 33.4994H156.39V39.663C156.39 40.3205 156.636 40.6492 157.126 40.6492C157.371 40.6492 157.78 40.567 158.025 40.567C158.761 40.567 159.17 40.978 159.17 41.7176Z" fill="white"/>
<path d="M172.346 36.5874C172.346 37.8415 171.65 38.2595 170.344 38.2595L163.031 38.1759C163.292 39.9315 164.772 40.8511 166.6 40.8511C167.471 40.8511 167.906 40.6839 168.689 40.3495C169.125 40.1823 169.473 39.9315 169.908 39.9315C170.605 39.9315 171.04 40.4331 171.04 41.0183C171.04 41.4363 170.866 41.8543 170.257 42.3559C169.386 42.9411 168.08 43.3591 166.513 43.3591C163.205 43.3591 159.722 41.4363 159.722 37.089C159.722 32.8254 163.379 30.7354 166.252 30.7354C168.951 30.7354 172.346 32.909 172.346 36.5874ZM163.031 36.0022H169.212C168.951 34.163 167.558 33.4106 166.165 33.4106C164.772 33.4942 163.205 34.2466 163.031 36.0022Z" fill="white"/>
<path d="M185.438 41.6149C185.438 41.6967 185.438 41.8603 185.361 41.9421V42.7601C185.361 46.523 182.034 47.75 179.714 47.75C178.321 47.75 177.238 47.341 176.774 47.0956C176.155 46.8502 175.846 46.3594 175.846 45.7868C175.846 45.1324 176.387 44.5598 177.006 44.5598C177.161 44.5598 177.316 44.5598 177.625 44.6416C178.089 44.7234 178.785 45.0506 179.791 45.0506C181.57 45.0506 182.576 44.0689 182.576 42.6783V41.1241C182.421 41.8603 181.261 43.0873 179.327 43.0873C176.929 43.0873 173.989 41.1241 173.989 36.8704C173.989 32.7804 176.929 30.7354 179.327 30.7354C180.874 30.7354 182.112 31.6352 182.576 32.6986V32.2896C182.576 31.4716 183.272 30.8172 184.046 30.8172C184.819 30.8172 185.515 31.4716 185.515 32.2896V41.6149H185.438ZM182.653 36.9522C182.653 34.3346 181.029 33.353 179.791 33.353C178.321 33.353 176.852 34.58 176.852 36.9522C176.852 39.3245 178.399 40.5515 179.791 40.5515C181.029 40.4697 182.653 39.5699 182.653 36.9522Z" fill="white"/>
<path d="M195.943 32.1661C195.943 33.0076 195.322 33.6809 194.08 33.6809C192.373 33.6809 191.208 35.1116 191.131 36.1215V41.8443C191.131 42.6859 190.51 43.3591 189.734 43.3591C188.957 43.3591 188.259 42.6859 188.259 41.8443V32.3344C188.259 31.4928 188.957 30.7354 189.734 30.7354C190.51 30.7354 191.131 31.4086 191.131 32.3344V33.5126C191.208 32.671 192.605 30.7354 194.546 30.7354C195.477 30.7354 195.943 31.3245 195.943 32.1661Z" fill="white"/>
<path d="M209.114 32.3238V41.7707C209.114 42.6067 208.385 43.2755 207.574 43.2755C206.764 43.2755 206.034 42.6067 206.034 41.7707V41.3527C205.872 42.1051 204.657 43.3591 202.631 43.3591C200.119 43.3591 197.039 41.3527 197.039 37.0054C197.039 32.8254 200.119 30.7354 202.631 30.7354C204.252 30.7354 205.548 31.655 206.034 32.7418V32.3238C206.034 31.4878 206.764 30.819 207.574 30.819C208.385 30.7354 209.114 31.4878 209.114 32.3238ZM206.197 37.0054C206.197 34.3302 204.495 33.327 203.198 33.327C201.658 33.327 200.119 34.581 200.119 37.0054C200.119 39.4299 201.739 40.6839 203.198 40.6839C204.495 40.6003 206.197 39.6807 206.197 37.0054Z" fill="white"/>
<path d="M218.444 41.7176C218.444 42.786 217.382 43.3612 215.828 43.3612C214.275 43.3612 212.64 42.8681 212.64 39.5809V33.4994H211.986C211.251 33.4994 210.76 33.0063 210.76 32.3488C210.76 31.6092 211.251 31.1161 211.986 31.1161H212.64V29.5546C212.64 28.7328 213.294 27.9932 214.193 27.9932C215.011 27.9932 215.665 28.6506 215.665 29.5546V31.1161H217.218C217.954 31.1161 218.444 31.6092 218.444 32.3488C218.444 33.0063 217.954 33.4994 217.218 33.4994H215.665V39.663C215.665 40.3205 215.91 40.6492 216.401 40.6492C216.646 40.6492 217.055 40.567 217.3 40.567C217.954 40.567 218.444 40.978 218.444 41.7176Z" fill="white"/>
<path d="M220.64 27.8295C220.64 27.0035 221.42 26.3428 222.286 26.3428C223.153 26.3428 223.933 27.0035 223.933 27.8295C223.933 28.6554 223.153 29.3162 222.286 29.3162C221.42 29.3162 220.64 28.5729 220.64 27.8295ZM223.933 32.5374V41.7881C223.933 42.6141 223.153 43.3574 222.373 43.3574C221.506 43.3574 220.726 42.6967 220.726 41.7881V32.5374C220.726 31.7115 221.42 30.9681 222.373 30.9681C223.153 30.9681 223.933 31.7115 223.933 32.5374Z" fill="white"/>
<path d="M237.109 32.1757C237.109 32.4298 237.027 32.684 236.946 32.9382L232.858 42.173C232.531 42.9355 232.041 43.3591 231.305 43.3591C230.57 43.3591 230.161 42.9355 229.834 42.173L225.747 32.9382C225.665 32.7687 225.583 32.5145 225.583 32.1757C225.583 31.4131 226.155 30.7354 226.973 30.7354C227.545 30.7354 228.117 31.0742 228.444 31.8368L231.387 38.9535L234.33 31.8368C234.657 31.0742 235.147 30.7354 235.801 30.7354C236.455 30.7354 237.109 31.4131 237.109 32.1757Z" fill="white"/>
<path d="M249.185 32.3238V41.7707C249.185 42.6067 248.489 43.2755 247.715 43.2755C246.942 43.2755 246.245 42.6067 246.245 41.7707V41.3527C246.091 42.1051 244.93 43.3591 242.996 43.3591C240.598 43.3591 237.659 41.3527 237.659 37.0054C237.659 32.8254 240.598 30.7354 242.996 30.7354C244.544 30.7354 245.781 31.655 246.245 32.7418V32.3238C246.245 31.4878 246.942 30.819 247.715 30.819C248.489 30.7354 249.185 31.4878 249.185 32.3238ZM246.4 37.0054C246.4 34.3302 244.776 33.327 243.538 33.327C242.068 33.327 240.598 34.581 240.598 37.0054C240.598 39.4299 242.145 40.6839 243.538 40.6839C244.776 40.6003 246.4 39.6807 246.4 37.0054Z" fill="white"/>
<path d="M0 22.5015C0 22.9073 0 23.3132 0 23.719C0 33.297 5.81068 41.5763 14.2704 45.5536C13.5013 38.4107 10.2541 31.5113 4.52891 26.0729C3.07624 24.693 1.62357 23.5567 0 22.5015Z" fill="white"/>
<path d="M7.17719 23.6364C13.4975 29.9866 16.9377 38.266 17.4177 46.6257C19.5778 47.2688 21.8179 47.6707 24.138 47.7511C24.378 37.6229 20.6978 27.4144 13.0175 19.6977C10.0573 16.7235 6.77717 14.3924 3.257 12.624C2.29696 14.5532 1.49692 16.6431 1.0969 18.8135C3.257 20.18 5.33711 21.7876 7.17719 23.6364Z" fill="white"/>
<path d="M29.5191 0L12.6242 14.9466C13.5092 15.7589 14.3942 16.5712 15.2791 17.3835C16.2445 18.3583 17.1295 19.333 17.934 20.3078L37.3229 3.16802C34.9898 1.70586 32.3349 0.64985 29.5191 0Z" fill="white"/>
<path d="M24.2232 0C16.2406 0 9.20637 4.01605 4.93844 10.1204C6.67723 11.004 8.25794 12.0481 9.91769 13.1726L24.6974 0C24.4603 0 24.3022 0 24.2232 0Z" fill="white"/>
<path d="M30.1663 34C35.3879 28.7654 41.9965 25.6574 48.8498 24.6759C48.8498 24.3487 48.8498 24.0215 48.8498 23.6126C48.8498 21.486 48.6051 19.523 48.1155 17.5601C41.2622 18.0508 34.572 20.9135 29.3505 26.1481C27.5555 27.9475 26.0054 29.9923 24.7 32.2006C25.4343 34.2454 26.087 36.2902 26.4949 38.4167C27.5555 36.8627 28.7793 35.3905 30.1663 34Z" fill="white"/>
<path d="M27.4422 43.6214C27.5224 44.9708 27.6027 46.3997 27.6027 47.7492C38.031 46.4791 46.4539 38.6204 48.2989 28.5391C42.6034 29.4916 37.0684 32.1906 32.6564 36.5565C30.4905 38.6998 28.8059 41.0812 27.4422 43.6214Z" fill="white"/>
<path d="M46.6552 14.6116C45.1565 11.0097 42.869 7.88808 40.0294 5.48682L20.3099 23.0961C21.4931 24.857 22.5974 26.698 23.465 28.5389C24.5693 26.9381 25.8314 25.4173 27.1723 23.9765C32.6938 18.3736 39.5562 15.332 46.6552 14.6116Z" fill="white"/>
</svg>
