<svg width="105" height="106" viewBox="0 0 105 106" fill="none" xmlns="http://www.w3.org/2000/svg">
<path d="M89.6984 15.3409C79.8317 5.45222 66.7053 0.0058375 52.7158 0C23.9029 0 0.449017 23.4667 0.437354 52.3157C0.431523 61.5389 2.83989 70.5345 7.41753 78.4735L0 105.577L27.7166 98.3035C35.3499 102.471 43.9512 104.666 52.6983 104.672H52.7216C81.5345 104.672 104.988 81.1996 105 52.3565C105.006 38.3757 99.571 25.2297 89.6984 15.3409ZM52.7158 95.8342H52.6983C44.9017 95.8284 37.2509 93.7327 30.5798 89.7749L28.9937 88.835L12.5491 93.1548L16.9402 77.1075L15.908 75.4613C11.5578 68.5381 9.26025 60.5348 9.26608 52.3215C9.27774 28.3469 28.7662 8.83797 52.7391 8.83797C64.3435 8.84381 75.2541 13.3737 83.4588 21.5929C91.6636 29.8121 96.1771 40.7399 96.1713 52.3565C96.1596 76.3311 76.6711 95.8342 52.7158 95.8342ZM76.5545 63.2668C75.2482 62.613 68.8279 59.4491 67.6266 59.0113C66.4312 58.5735 65.5565 58.3575 64.6876 59.6651C63.8187 60.9727 61.3112 63.9206 60.5531 64.7904C59.7892 65.6602 59.0312 65.7711 57.7249 65.1173C56.4187 64.4635 52.2084 63.08 47.2226 58.6318C43.3389 55.1644 40.7148 50.8855 39.9567 49.5779C39.1928 48.2703 39.875 47.5639 40.5282 46.9101C41.1171 46.3264 41.8344 45.3807 42.4875 44.6218C43.1406 43.8571 43.3564 43.3142 43.7937 42.4386C44.2311 41.5688 44.0095 40.8041 43.6829 40.1503C43.3564 39.4965 40.7439 33.0636 39.6534 30.4425C38.5921 27.8916 37.5133 28.236 36.7144 28.201C35.9505 28.1659 35.0816 28.1542 34.2128 28.1542C33.3439 28.1542 31.9269 28.4811 30.7314 29.7887C29.536 31.0963 26.1596 34.2603 26.1596 40.6932C26.1596 47.1261 30.8422 53.3431 31.4953 54.2187C32.1484 55.0885 40.7089 68.2929 53.8121 73.9553C56.926 75.3037 59.3635 76.1093 61.2587 76.7106C64.3902 77.7029 67.2359 77.5628 69.4868 77.2301C71.9943 76.8565 77.2134 74.0662 78.3039 71.0132C79.3944 67.9601 79.3944 65.3449 79.0678 64.7962C78.7412 64.2475 77.8607 63.9264 76.5545 63.2668Z" fill="#25D366"/>
</svg>
