<svg width="48" height="49" viewBox="0 0 48 49" fill="none" xmlns="http://www.w3.org/2000/svg">
<path d="M41.005 7.74927C36.4945 3.22871 30.4938 0.738936 24.0986 0.736267C10.927 0.736267 0.205265 11.4639 0.199933 24.652C0.197268 28.8683 1.29823 32.9806 3.39087 36.6099L0 49L12.6704 45.675C16.1599 47.5804 20.092 48.5837 24.0906 48.5864H24.1013C37.2729 48.5864 47.9947 37.8561 48 24.6707C48.0027 18.2794 45.5182 12.2698 41.005 7.74927ZM24.0986 44.5462H24.0906C20.5265 44.5435 17.029 43.5855 13.9793 41.7762L13.2542 41.3466L5.73675 43.3213L7.74408 35.9854L7.27224 35.2329C5.28357 32.068 4.23326 28.4093 4.23592 24.6547C4.24125 13.6948 13.1503 4.77648 24.1093 4.77648C29.4142 4.77915 34.4019 6.84996 38.1526 10.6073C41.9034 14.3647 43.9667 19.3602 43.964 24.6707C43.9587 35.6305 35.0496 44.5462 24.0986 44.5462ZM34.9963 29.6582C34.3992 29.3594 31.4642 27.913 30.915 27.7128C30.3685 27.5127 29.9687 27.414 29.5715 28.0117C29.1743 28.6095 28.028 29.9571 27.6814 30.3547C27.3322 30.7523 26.9857 30.803 26.3885 30.5042C25.7914 30.2053 23.8667 29.5728 21.5875 27.5394C19.8121 25.9543 18.6125 23.9982 18.2659 23.4004C17.9167 22.8027 18.2286 22.4798 18.5272 22.1809C18.7964 21.914 19.1243 21.4817 19.4229 21.1348C19.7214 20.7852 19.8201 20.5371 20.02 20.1368C20.2199 19.7392 20.1186 19.3896 19.9693 19.0907C19.8201 18.7918 18.6258 15.851 18.1273 14.6529C17.6421 13.4867 17.1489 13.6441 16.7837 13.6281C16.4345 13.6121 16.0373 13.6068 15.6401 13.6068C15.2429 13.6068 14.5951 13.7562 14.0486 14.354C13.5022 14.9517 11.9587 16.3981 11.9587 19.3389C11.9587 22.2796 14.0993 25.1217 14.3979 25.5219C14.6964 25.9196 18.6098 31.9559 24.5998 34.5444C26.0233 35.1608 27.1376 35.5291 28.004 35.8039C29.4355 36.2576 30.7364 36.1936 31.7654 36.0415C32.9117 35.8707 35.2976 34.5951 35.7961 33.1994C36.2946 31.8038 36.2946 30.6082 36.1453 30.3574C35.996 30.1066 35.5935 29.9598 34.9963 29.6582Z" fill="#161616"/>
</svg>
