<svg width="24" height="24" viewBox="0 0 24 24" fill="none" xmlns="http://www.w3.org/2000/svg">
<path d="M11.8804 2.08453C14.9733 2.08453 15.3396 2.09809 16.5559 2.15236C17.6863 2.2021 18.2968 2.39201 18.7037 2.55028C19.2418 2.75828 19.6307 3.0115 20.0332 3.41393C20.44 3.82088 20.6888 4.20524 20.8968 4.74333C21.0551 5.15028 21.2449 5.76524 21.2947 6.89117C21.349 8.11204 21.3625 8.4783 21.3625 11.5667C21.3625 14.6595 21.349 15.0258 21.2947 16.2421C21.2449 17.3726 21.0551 17.983 20.8968 18.39C20.6888 18.9281 20.4355 19.317 20.0332 19.7194C19.6262 20.1264 19.2418 20.375 18.7037 20.583C18.2968 20.7413 17.6818 20.9312 16.5559 20.981C15.335 21.0352 14.9688 21.0488 11.8804 21.0488C8.78752 21.0488 8.42125 21.0352 7.2049 20.981C6.07446 20.9312 5.46401 20.7413 5.05706 20.583C4.51897 20.375 4.1301 20.1219 3.72766 19.7194C3.3207 19.3125 3.07201 18.9281 2.86401 18.39C2.70574 17.983 2.51583 17.3681 2.46609 16.2421C2.41182 15.0213 2.39826 14.655 2.39826 11.5667C2.39826 8.47378 2.41182 8.10752 2.46609 6.89117C2.51583 5.76072 2.70574 5.15028 2.86401 4.74333C3.07201 4.20524 3.32523 3.81637 3.72766 3.41393C4.13461 3.00697 4.51897 2.75828 5.05706 2.55028C5.46401 2.39201 6.07897 2.2021 7.2049 2.15236C8.42125 2.09809 8.78752 2.08453 11.8804 2.08453ZM11.8804 0C8.73777 0 8.34437 0.0135655 7.10994 0.0678312C5.88002 0.122087 5.03445 0.32105 4.30193 0.605916C3.53775 0.90435 2.89114 1.29775 2.24905 1.94436C1.60243 2.58645 1.20904 3.23306 0.910604 3.99271C0.625733 4.72976 0.426775 5.57081 0.372514 6.80072C0.318253 8.0397 0.304688 8.43308 0.304688 11.5758C0.304688 14.7183 0.318253 15.1118 0.372514 16.3462C0.426775 17.5761 0.625733 18.4216 0.910604 19.1541C1.20904 19.9184 1.60243 20.565 2.24905 21.2071C2.89114 21.8492 3.53775 22.247 4.2974 22.541C5.03445 22.8258 5.8755 23.0248 7.10541 23.0791C8.33986 23.1333 8.73325 23.1469 11.8759 23.1469C15.0185 23.1469 15.4119 23.1333 16.6463 23.0791C17.8763 23.0248 18.7219 22.8258 19.4544 22.541C20.214 22.247 20.8606 21.8492 21.5027 21.2071C22.1448 20.565 22.5427 19.9184 22.8366 19.1586C23.1214 18.4216 23.3204 17.5806 23.3747 16.3507C23.429 15.1163 23.4426 14.7228 23.4426 11.5803C23.4426 8.43761 23.429 8.04421 23.3747 6.80978C23.3204 5.57986 23.1214 4.73429 22.8366 4.00175C22.5518 3.23306 22.1583 2.58645 21.5117 1.94436C20.8696 1.30226 20.223 0.90435 19.4634 0.610442C18.7264 0.325564 17.8853 0.126613 16.6554 0.0723458C15.4164 0.0135655 15.023 0 11.8804 0Z" fill="white"/>
<path d="M11.8797 5.62988C8.59691 5.62988 5.93359 8.2932 5.93359 11.576C5.93359 14.8588 8.59691 17.5221 11.8797 17.5221C15.1625 17.5221 17.8258 14.8588 17.8258 11.576C17.8258 8.2932 15.1625 5.62988 11.8797 5.62988ZM11.8797 15.4331C9.74997 15.4331 8.02265 13.7057 8.02265 11.576C8.02265 9.44625 9.74997 7.71894 11.8797 7.71894C14.0094 7.71894 15.7367 9.44625 15.7367 11.576C15.7367 13.7057 14.0094 15.4331 11.8797 15.4331Z" fill="white"/>
<path d="M19.4503 5.39404C19.4503 6.16274 18.8262 6.78222 18.062 6.78222C17.2934 6.78222 16.6738 6.15822 16.6738 5.39404C16.6738 4.62535 17.2979 4.00586 18.062 4.00586C18.8262 4.00586 19.4503 4.62986 19.4503 5.39404Z" fill="white"/>
</svg>
