<svg width="24" height="24" viewBox="0 0 24 24" fill="none" xmlns="http://www.w3.org/2000/svg">
<path d="M21.4376 0H1.70922C0.764177 0 0 0.746086 0 1.66853V21.4783C0 22.4008 0.764177 23.1515 1.70922 23.1515H21.4376C22.3827 23.1515 23.1514 22.4008 23.1514 21.4829V1.66853C23.1514 0.746086 22.3827 0 21.4376 0ZM6.86855 19.7284H3.43201V8.67726H6.86855V19.7284ZM5.15029 7.17152C4.04697 7.17152 3.15619 6.28072 3.15619 5.18193C3.15619 4.08315 4.04697 3.19236 5.15029 3.19236C6.24908 3.19236 7.13986 4.08315 7.13986 5.18193C7.13986 6.27621 6.24908 7.17152 5.15029 7.17152ZM19.7285 19.7284H16.2964V14.3566C16.2964 13.0769 16.2738 11.4265 14.5104 11.4265C12.7242 11.4265 12.4529 12.8237 12.4529 14.2662V19.7284H9.02544V8.67726H12.3172V10.1875H12.3625C12.8192 9.31934 13.9406 8.40144 15.6091 8.40144C19.0864 8.40144 19.7285 10.6894 19.7285 13.6647V19.7284Z" fill="white"/>
</svg>
